<svg version="1" xmlns="http://www.w3.org/2000/svg" width="682.667" height="682.667" viewBox="0 0 512 512">
  <path d="M0 256v256h512V0H0v256zm353-81.9L270.5 256l82.4 82.1 82.5 82-6.9 6.9-6.8 6.9-82.6-82-82.6-81.9-81 81c-44.6 44.5-81.5 81-82.1 81-.5 0-3.9-2.9-7.4-6.5l-6.5-6.5 81.5-81.5 81.5-81.5-81.5-81.5L79.5 93l6.5-6.5c3.5-3.6 6.9-6.5 7.4-6.5.6 0 37.5 36.5 82.1 81l81 81 82.5-81.9 82.5-81.9 7 6.9 7 7-82.5 82zm-85.4-90.7c15.1 7 19.3 26.5 8.3 39-13.1 14.9-37.5 9.3-42.9-9.9-5.6-20.1 15.5-38 34.6-29.1zm152.6 115.7c12.7 2.7 22.7 10.3 27.8 21.1 1.6 3.4 2.8 6.3 2.7 6.4-.3.3-19.8 5.4-20.7 5.4-.4 0-1.3-1.3-2-2.9-3-7.3-10.4-11.1-21.5-11.1-12.7 0-17.5 3.4-17.5 12.3 0 8.3 4.3 11.1 23.6 15.2 20.6 4.5 28.5 8.4 34.2 17.1 3.7 5.5 4.6 10.6 4 21.9-.4 7.1-.9 9.1-3.4 13.2-4 6.4-10.1 10.8-18.7 13.5-9.5 3-28.9 3.2-38.5.3-8.5-2.4-17.2-8.2-21.2-13.9-3.2-4.8-6.7-13.3-5.7-14.2.5-.5 18.4-5.3 19.9-5.4.4 0 1.5 1.7 2.3 3.7 3.6 8.5 10.8 12.3 23.3 12.3 9.3 0 13.8-1.4 17-5.4 2.9-3.7 3.5-7.5 2-12.1-1.6-4.8-6.3-7.7-15.2-9.5-27.6-5.5-38.5-11-44.1-22.5-5-10.2-3.2-25.8 3.9-34.1 4-4.6 12.1-9.3 19.1-11 6.4-1.6 21.9-1.7 28.7-.3zM154 210.5V221h-35v91H96v-91H61v-21h93v10.5zm113.6 172.9c15.1 7 19.3 26.5 8.3 39-13.1 14.9-37.5 9.3-42.9-9.9-5.6-20.1 15.5-38 34.6-29.1z"/>
</svg>
